<?xml version="1.0" standalone="no"?>
<!DOCTYPE svg PUBLIC "-//W3C//DTD SVG 20010904//EN"
 "http://www.w3.org/TR/2001/REC-SVG-20010904/DTD/svg10.dtd">
<svg version="1.0" xmlns="http://www.w3.org/2000/svg"
 width="600.000000pt" height="600.000000pt" viewBox="0 0 600.000000 600.000000"
 preserveAspectRatio="xMidYMid meet">
<metadata>
Created by potrace 1.11, written by Peter Selinger 2001-2013
</metadata>
<g transform="translate(0.000000,600.000000) scale(0.100000,-0.100000)"
fill="#000000" stroke="none">
<path d="M2780 5994 c-425 -38 -784 -139 -1143 -322 -285 -145 -526 -321 -757
-552 -475 -474 -761 -1055 -857 -1735 -13 -98 -18 -193 -18 -385 0 -192 5
-287 18 -385 52 -365 145 -664 305 -978 145 -285 321 -526 552 -757 474 -475
1055 -761 1735 -857 183 -25 587 -25 770 0 365 52 664 145 978 305 285 145
526 321 757 552 475 474 761 1055 857 1735 13 98 18 193 18 385 0 192 -5 287
-18 385 -52 365 -145 664 -305 978 -145 285 -321 526 -552 757 -466 467 -1040
754 -1700 851 -130 19 -524 33 -640 23z m390 -1108 c455 -67 751 -196 985
-431 172 -172 281 -384 326 -635 23 -122 17 -422 -9 -547 -86 -402 -304 -684
-654 -847 -254 -119 -453 -154 -925 -163 l-323 -6 -2 -555 -3 -556 -27 -7
c-178 -47 -591 -59 -732 -21 -98 27 -152 58 -205 118 -46 52 -76 124 -91 216
-6 41 -10 616 -10 1639 0 1792 -7 1643 84 1735 88 87 52 84 811 80 555 -3 678
-6 775 -20z m743 -2877 c24 -11 47 -47 47 -73 0 -7 -9 -25 -21 -40 l-20 -26
-584 0 -584 0 -20 26 c-12 15 -21 33 -21 40 0 25 22 62 44 72 30 15 1127 16
1159 1z m36 -423 c27 -25 28 -79 1 -106 -20 -20 -33 -20 -600 -20 -567 0 -580
0 -600 20 -38 38 -22 104 30 123 8 3 270 5 581 4 542 -2 568 -3 588 -21z"/>
<path d="M2589 4251 l-39 -39 0 -639 c0 -634 0 -641 21 -667 40 -51 120 -72
172 -44 50 26 857 620 876 644 15 20 21 41 21 80 0 45 -5 59 -27 84 -16 16
-219 162 -453 325 l-425 295 -54 0 c-49 0 -57 -3 -92 -39z"/>
<path d="M1952 2060 c-121 -74 -79 -250 60 -250 90 0 141 50 141 137 0 102
-113 166 -201 113z"/>
<path d="M1952 1650 c-91 -55 -94 -179 -7 -236 58 -38 160 -12 191 49 38 73
14 153 -57 189 -45 23 -86 23 -127 -2z"/>
</g>
</svg>
